# xmcd
#
# Track frame offsets:
#	150
#	14187
#	31185
#	46155
#	58090
#	75692
#	92907
#	106880
#	122687
#	136167
#	154415
#	172850
#	193462
#	209727
#	225702
#	242415
#
# Disc length: 3471 seconds
#
# Revision: 1
# Processed by: cddbd v1.5.1PL0 Copyright (c) Steve Scherf et al.
# Submitted via: CDex 1.50Beta5
#
DISCID=db0d8d10
DTITLE=石原裕次郎 - 別離の詩II
DYEAR=1997
DGENRE=Pop
TTITLE0=港町 涙町 別れ町
TTITLE1=白い街
TTITLE2=別離
TTITLE3=モカの匂う街
TTITLE4=夜霧の終着駅
TTITLE5=アカシアは枯れた
TTITLE6=宴のあと
TTITLE7=別れの夜明け
TTITLE8=別れて明日
TTITLE9=青い滑走路
TTITLE10=帰り道別れ道
TTITLE11=港町のうたが聴こえる
TTITLE12=ブランデーグラス
TTITLE13=夜明けの街
TTITLE14=時間よお前は…
TTITLE15=さよならは昼下がり
EXTD=
EXTT0=
EXTT1=
EXTT2=
EXTT3=
EXTT4=
EXTT5=
EXTT6=
EXTT7=
EXTT8=
EXTT9=
EXTT10=
EXTT11=
EXTT12=
EXTT13=
EXTT14=
EXTT15=
PLAYORDER=
